<?xml version="1.0" encoding="UTF-8"?>
<svg xmlns="http://www.w3.org/2000/svg" xmlns:xlink="http://www.w3.org/1999/xlink" width="701px" height="701px" viewBox="0 0 701 701" version="1.1">
<defs>
<filter id="alpha" filterUnits="objectBoundingBox" x="0%" y="0%" width="100%" height="100%">
  <feColorMatrix type="matrix" in="SourceGraphic" values="0 0 0 0 1 0 0 0 0 1 0 0 0 0 1 0 0 0 1 0"/>
</filter>
<mask id="mask0">
  <g filter="url(#alpha)">
<rect x="0" y="0" width="701" height="701" style="fill:rgb(0%,0%,0%);fill-opacity:0.701961;stroke:none;"/>
  </g>
</mask>
<clipPath id="clip1">
  <rect x="0" y="0" width="701" height="701"/>
</clipPath>
<g id="surface5" clip-path="url(#clip1)">
<path style=" stroke:none;fill-rule:nonzero;fill:rgb(100%,100%,100%);fill-opacity:1;" d="M 585.601562 72.679688 C 542.910156 46.125 491.738281 43.238281 446.648438 65.347656 C 408.25 84.121094 378.371094 116.042969 339.929688 134.832031 C 287.410156 160.527344 229.746094 174.578125 176.652344 199.195312 C 123.558594 223.816406 72.734375 262.398438 53.695312 317.75 C 31.265625 383.125 39.144531 459.996094 73.449219 519.761719 C 129.222656 616.90625 239.839844 651.410156 346.335938 650.148438 C 571.371094 647.5 687.289062 374.949219 650.570312 179.078125 C 642.550781 136.640625 623.007812 95.9375 585.601562 72.679688 Z M 585.601562 72.679688 "/>
</g>
<mask id="mask1">
  <g filter="url(#alpha)">
<rect x="0" y="0" width="701" height="701" style="fill:rgb(0%,0%,0%);fill-opacity:0.501961;stroke:none;"/>
  </g>
</mask>
<clipPath id="clip2">
  <rect x="0" y="0" width="701" height="701"/>
</clipPath>
<g id="surface8" clip-path="url(#clip2)">
<path style=" stroke:none;fill-rule:nonzero;fill:rgb(100%,100%,100%);fill-opacity:1;" d="M 277.90625 585.601562 C 290.902344 588.082031 302.230469 590.226562 315.464844 590.074219 C 328.699219 589.917969 342.214844 586.949219 353.039062 579.363281 C 355.128906 577.621094 357.5 576.246094 360.046875 575.296875 C 365.796875 573.683594 371.488281 577.484375 377.195312 579.25 C 384.429688 581.492188 392.363281 580.429688 399.457031 577.734375 C 406.550781 575.042969 412.929688 570.851562 419.253906 566.675781 C 418.320312 579.574219 418.015625 592.496094 418.34375 605.441406 L 427.359375 605.804688 L 450.449219 504.203125 C 450.449219 504.203125 410.953125 550.074219 391.703125 563.773438 L 354.777344 554.265625 C 354.777344 554.265625 351.300781 557.15625 343.980469 558.613281 C 343.980469 558.613281 340.628906 571.496094 321.785156 571.523438 C 302.945312 571.554688 275.925781 569.03125 275.925781 569.03125 Z M 277.90625 585.601562 "/>
</g>
<mask id="mask2">
  <g filter="url(#alpha)">
<rect x="0" y="0" width="701" height="701" style="fill:rgb(0%,0%,0%);fill-opacity:0.6;stroke:none;"/>
  </g>
</mask>
<clipPath id="clip3">
  <rect x="0" y="0" width="701" height="701"/>
</clipPath>
<g id="surface11" clip-path="url(#clip3)">
<path style=" stroke:none;fill-rule:nonzero;fill:rgb(100%,100%,100%);fill-opacity:1;" d="M 240.066406 396.023438 C 240.066406 396.023438 222.917969 479.257812 223.789062 507.847656 C 223.789062 507.847656 247.089844 501.3125 263.351562 507.847656 C 263.351562 507.847656 235.675781 504.761719 223.757812 517.449219 C 211.84375 530.136719 248.519531 563.476562 321.898438 556.707031 C 321.898438 556.707031 336.535156 561.289062 343.964844 558.597656 C 343.964844 558.597656 341.976562 571.863281 321.773438 571.511719 C 301.65625 570.710938 242.796875 570.222656 212.304688 543.808594 C 212.320312 543.820312 208.476562 467.300781 240.066406 396.023438 Z M 240.066406 396.023438 "/>
</g>
<mask id="mask3">
  <g filter="url(#alpha)">
<rect x="0" y="0" width="701" height="701" style="fill:rgb(0%,0%,0%);fill-opacity:0.501961;stroke:none;"/>
  </g>
</mask>
<clipPath id="clip4">
  <rect x="0" y="0" width="701" height="701"/>
</clipPath>
<g id="surface14" clip-path="url(#clip4)">
<path style=" stroke:none;fill-rule:nonzero;fill:rgb(100%,100%,100%);fill-opacity:1;" d="M 275.128906 411.976562 C 275.128906 411.976562 280.191406 448.835938 288.363281 456.546875 C 296.535156 464.257812 334.628906 461.734375 349.714844 470.046875 C 349.714844 470.046875 363.917969 445.445312 389.601562 430.050781 L 354.777344 484.882812 L 324.675781 477.773438 L 287.929688 472.164062 L 284.84375 479.257812 L 279.320312 479.257812 C 279.320312 479.257812 278.703125 439.917969 275.128906 411.976562 Z M 275.128906 411.976562 "/>
</g>
<mask id="mask4">
  <g filter="url(#alpha)">
<rect x="0" y="0" width="701" height="701" style="fill:rgb(0%,0%,0%);fill-opacity:0.6;stroke:none;"/>
  </g>
</mask>
<clipPath id="clip5">
  <rect x="0" y="0" width="701" height="701"/>
</clipPath>
<g id="surface17" clip-path="url(#clip5)">
<path style=" stroke:none;fill-rule:nonzero;fill:rgb(100%,100%,100%);fill-opacity:1;" d="M 419.101562 336.902344 C 434.84375 346.167969 436.609375 356.613281 439.847656 364.070312 C 431.660156 365.699219 423.195312 367.4375 416.4375 372.328125 C 408.023438 378.441406 403.46875 388.5625 399.933594 398.390625 C 396.59375 407.691406 393.785156 417.175781 391.523438 426.796875 C 399.132812 413.050781 409.949219 401.34375 423.054688 392.671875 C 430.609375 387.679688 439.949219 383.65625 448.570312 386.476562 C 441.335938 389.546875 433.148438 393.695312 431.621094 401.40625 C 431.320312 402.6875 431.371094 404.023438 431.773438 405.277344 C 433.0625 408.90625 437.578125 409.890625 441 411.65625 C 447.671875 415.089844 451.148438 422.871094 451.445312 430.414062 C 451.738281 437.957031 449.425781 445.246094 447.140625 452.382812 C 445.128906 458.636719 443.121094 464.890625 441.109375 471.140625 C 438.546875 479.132812 435.9375 487.238281 431.296875 494.246094 C 426.65625 501.257812 419.6875 507.132812 411.402344 508.503906 C 407.9375 509.171875 404.351562 508.765625 401.125 507.339844 C 398.679688 506.011719 396.40625 504.386719 394.355469 502.503906 C 384.414062 494.476562 372.46875 489.320312 359.808594 487.585938 C 376.101562 498.355469 383.8125 517.914062 390.570312 536.238281 C 387.464844 530.804688 382.996094 526.28125 377.601562 523.113281 C 376.21875 522.152344 374.574219 521.632812 372.890625 521.628906 C 368.460938 521.980469 367.058594 527.628906 364.394531 531.160156 C 361.195312 535.367188 355.351562 536.867188 350.109375 536.195312 C 344.863281 535.523438 340.042969 533.070312 335.332031 530.585938 L 275.730469 499.855469 L 271.523438 512.472656 C 271.523438 512.472656 318.996094 550.328125 391.734375 563.714844 C 391.734375 563.714844 438.980469 526.382812 455.71875 493.28125 C 472.460938 460.179688 498.46875 392.335938 498.46875 392.335938 C 498.46875 392.335938 488.949219 374.304688 472.628906 364.898438 C 472.628906 364.898438 460.445312 359.136719 457.878906 352.015625 C 455.3125 344.890625 432.417969 332.597656 432.417969 332.597656 C 432.417969 332.597656 435.390625 340.195312 419.101562 336.902344 Z M 419.101562 336.902344 "/>
</g>
<mask id="mask5">
  <g filter="url(#alpha)">
<rect x="0" y="0" width="701" height="701" style="fill:rgb(0%,0%,0%);fill-opacity:0.2;stroke:none;"/>
  </g>
</mask>
<clipPath id="clip6">
  <rect x="0" y="0" width="701" height="701"/>
</clipPath>
<g id="surface20" clip-path="url(#clip6)">
<path style=" stroke:none;fill-rule:nonzero;fill:rgb(100%,100%,100%);fill-opacity:1;" d="M 360.3125 212.527344 C 360.3125 212.527344 377.964844 203.359375 394.1875 212.527344 C 394.1875 212.527344 394.453125 226.058594 388.324219 231.625 C 386.152344 233.601562 376.199219 233.9375 372.425781 233.601562 C 357.117188 232.214844 360.3125 212.527344 360.3125 212.527344 Z M 360.3125 212.527344 "/>
</g>
<mask id="mask6">
  <g filter="url(#alpha)">
<rect x="0" y="0" width="701" height="701" style="fill:rgb(0%,0%,0%);fill-opacity:0.2;stroke:none;"/>
  </g>
</mask>
<clipPath id="clip7">
  <rect x="0" y="0" width="701" height="701"/>
</clipPath>
<g id="surface23" clip-path="url(#clip7)">
<path style=" stroke:none;fill-rule:nonzero;fill:rgb(100%,100%,100%);fill-opacity:1;" d="M 349.238281 212.527344 C 349.238281 212.527344 331.585938 203.359375 315.378906 212.527344 C 315.378906 212.527344 315.113281 226.058594 321.226562 231.625 C 323.398438 233.601562 333.367188 233.9375 337.125 233.601562 C 352.433594 232.214844 349.238281 212.527344 349.238281 212.527344 Z M 349.238281 212.527344 "/>
</g>
</defs>
<g id="surface1">
<path style=" stroke:none;fill-rule:nonzero;fill:rgb(11.372549%,9.411765%,48.627451%);fill-opacity:1;" d="M 585.601562 72.679688 C 542.910156 46.125 491.738281 43.238281 446.648438 65.347656 C 408.25 84.121094 378.371094 116.042969 339.929688 134.832031 C 287.410156 160.527344 229.746094 174.578125 176.652344 199.195312 C 123.558594 223.816406 72.734375 262.398438 53.695312 317.75 C 31.265625 383.125 39.144531 459.996094 73.449219 519.761719 C 129.222656 616.90625 239.839844 651.410156 346.335938 650.148438 C 571.371094 647.5 687.289062 374.949219 650.570312 179.078125 C 642.550781 136.640625 623.007812 95.9375 585.601562 72.679688 Z M 585.601562 72.679688 "/>
<use xlink:href="#surface5" mask="url(#mask0)"/>
<path style="fill:none;stroke-width:1;stroke-linecap:round;stroke-linejoin:round;stroke:rgb(11.372549%,9.411765%,48.627451%);stroke-opacity:1;stroke-miterlimit:4;" d="M 120.608951 310.271041 L 112.21135 311.789519 L 110.559134 302.689796 L 100.578972 304.500825 L 102.231188 313.600548 L 93.839158 315.119026 L 95.708697 325.45025 L 104.100727 323.928985 L 105.750156 333.028709 L 115.730318 331.228825 L 114.080889 322.120743 L 122.481277 320.599478 Z M 120.608951 310.271041 " transform="matrix(1.402,0,0,1.402,0,0)"/>
<path style="fill:none;stroke-width:1;stroke-linecap:round;stroke-linejoin:round;stroke:rgb(11.372549%,9.411765%,48.627451%);stroke-opacity:1;stroke-miterlimit:4;" d="M 204.470734 170.869182 L 196.418621 168.030046 L 199.500156 159.309246 L 189.94071 155.929587 L 186.859174 164.650388 L 178.809848 161.811252 L 175.318741 171.710614 L 183.359709 174.54975 L 180.28096 183.27891 L 189.840407 186.65021 L 192.9303 177.929409 L 200.971269 180.771331 Z M 204.470734 170.869182 " transform="matrix(1.402,0,0,1.402,0,0)"/>
<path style="fill:none;stroke-width:1;stroke-linecap:round;stroke-linejoin:round;stroke:rgb(11.372549%,9.411765%,48.627451%);stroke-opacity:1;stroke-miterlimit:4;" d="M 407.509362 275.089716 L 399.969909 279.079552 L 395.640157 270.899273 L 386.671385 275.641383 L 391.001137 283.818875 L 383.458898 287.808711 L 388.370966 297.089537 L 395.910418 293.099701 L 400.24017 301.268835 L 409.208943 296.529511 L 404.87919 288.349233 L 412.418643 284.359397 Z M 407.509362 275.089716 " transform="matrix(1.402,0,0,1.402,0,0)"/>
<path style="fill:none;stroke-width:1;stroke-linecap:round;stroke-linejoin:round;stroke:rgb(11.372549%,9.411765%,48.627451%);stroke-opacity:1;stroke-miterlimit:4;" d="M 91.649206 282.470355 C 91.649206 285.850013 88.910374 288.588846 85.530715 288.588846 C 82.151057 288.588846 79.409437 285.850013 79.409437 282.470355 C 79.409437 279.090696 82.151057 276.349077 85.530715 276.349077 C 88.910374 276.349077 91.649206 279.090696 91.649206 282.470355 Z M 91.649206 282.470355 " transform="matrix(1.402,0,0,1.402,0,0)"/>
<path style="fill:none;stroke-width:1;stroke-linecap:round;stroke-linejoin:round;stroke:rgb(11.372549%,9.411765%,48.627451%);stroke-opacity:1;stroke-miterlimit:4;" d="M 180.860489 200.650856 C 180.860489 201.545226 180.136078 202.269637 179.238922 202.269637 C 178.344552 202.269637 177.620141 201.545226 177.620141 200.650856 C 177.620141 199.756486 178.344552 199.029289 179.238922 199.029289 C 180.136078 199.029289 180.860489 199.756486 180.860489 200.650856 Z M 180.860489 200.650856 " transform="matrix(1.402,0,0,1.402,0,0)"/>
<path style="fill:none;stroke-width:1;stroke-linecap:round;stroke-linejoin:round;stroke:rgb(11.372549%,9.411765%,48.627451%);stroke-opacity:1;stroke-miterlimit:4;" d="M 106.730898 172.861314 C 106.730898 176.018077 104.170382 178.581379 101.010833 178.581379 C 97.851284 178.581379 95.290768 176.018077 95.290768 172.861314 C 95.290768 169.701765 97.851284 167.141249 101.010833 167.141249 C 104.167595 167.146822 106.725325 169.704552 106.730898 172.861314 Z M 106.730898 172.861314 " transform="matrix(1.402,0,0,1.402,0,0)"/>
<path style="fill:none;stroke-width:1;stroke-linecap:round;stroke-linejoin:round;stroke:rgb(11.372549%,9.411765%,48.627451%);stroke-opacity:1;stroke-miterlimit:4;" d="M 358.75925 250.339916 C 358.75925 252.128655 357.310427 253.580265 355.518902 253.580265 C 353.730162 253.580265 352.281339 252.128655 352.281339 250.339916 C 352.281339 248.551177 353.730162 247.099568 355.518902 247.099568 C 357.310427 247.099568 358.75925 248.551177 358.75925 250.339916 Z M 358.75925 250.339916 " transform="matrix(1.402,0,0,1.402,0,0)"/>
<path style="fill:none;stroke-width:1;stroke-linecap:round;stroke-linejoin:round;stroke:rgb(11.372549%,9.411765%,48.627451%);stroke-opacity:1;stroke-miterlimit:4;" d="M 333.259963 144.339002 C 333.259963 148.342769 330.014042 151.58869 326.010275 151.58869 C 322.006509 151.58869 318.760588 148.342769 318.760588 144.339002 C 318.760588 140.335235 322.006509 137.089314 326.010275 137.089314 C 330.014042 137.089314 333.259963 140.335235 333.259963 144.339002 Z M 333.259963 144.339002 " transform="matrix(1.402,0,0,1.402,0,0)"/>
<path style=" stroke:none;fill-rule:nonzero;fill:rgb(100%,100%,100%);fill-opacity:1;" d="M 394.480469 293.734375 C 395.011719 294.53125 411.09375 297.742188 419.4375 309.871094 C 424.289062 316.835938 428.363281 324.316406 431.578125 332.175781 C 431.578125 332.175781 445.527344 340.476562 452.679688 347.316406 C 459.828125 354.160156 468.351562 363.246094 474.925781 368.011719 C 481.503906 372.777344 495.03125 381.820312 498.4375 392.40625 C 498.4375 392.40625 478.152344 447.96875 472.417969 460.25 C 466.683594 472.53125 452.539062 498.59375 452.539062 498.59375 L 427.300781 605.804688 L 280.917969 605.804688 L 275.925781 569.03125 C 275.925781 569.03125 231.0625 560.226562 212.320312 543.792969 C 212.320312 543.792969 210.550781 503.136719 218.390625 466.867188 C 226.226562 430.597656 252.878906 355.183594 270.9375 332.148438 C 270.9375 332.148438 299.777344 318.351562 325.222656 313.921875 C 325.222656 313.921875 341.738281 300.871094 352.546875 299.480469 C 363.355469 298.09375 394.480469 293.734375 394.480469 293.734375 Z M 394.480469 293.734375 "/>
<path style=" stroke:none;fill-rule:nonzero;fill:rgb(11.372549%,9.411765%,48.627451%);fill-opacity:1;" d="M 277.90625 585.601562 C 290.902344 588.082031 302.230469 590.226562 315.464844 590.074219 C 328.699219 589.917969 342.214844 586.949219 353.039062 579.363281 C 355.128906 577.621094 357.5 576.246094 360.046875 575.296875 C 365.796875 573.683594 371.488281 577.484375 377.195312 579.25 C 384.429688 581.492188 392.363281 580.429688 399.457031 577.734375 C 406.550781 575.042969 412.929688 570.851562 419.253906 566.675781 C 418.320312 579.574219 418.015625 592.496094 418.34375 605.441406 L 427.359375 605.804688 L 450.449219 504.203125 C 450.449219 504.203125 410.953125 550.074219 391.703125 563.773438 L 354.777344 554.265625 C 354.777344 554.265625 351.300781 557.15625 343.980469 558.613281 C 343.980469 558.613281 340.628906 571.496094 321.785156 571.523438 C 302.945312 571.554688 275.925781 569.03125 275.925781 569.03125 Z M 277.90625 585.601562 "/>
<use xlink:href="#surface8" mask="url(#mask1)"/>
<path style=" stroke:none;fill-rule:nonzero;fill:rgb(11.372549%,9.411765%,48.627451%);fill-opacity:1;" d="M 240.066406 396.023438 C 240.066406 396.023438 222.917969 479.257812 223.789062 507.847656 C 223.789062 507.847656 247.089844 501.3125 263.351562 507.847656 C 263.351562 507.847656 235.675781 504.761719 223.757812 517.449219 C 211.84375 530.136719 248.519531 563.476562 321.898438 556.707031 C 321.898438 556.707031 336.535156 561.289062 343.964844 558.597656 C 343.964844 558.597656 341.976562 571.863281 321.773438 571.511719 C 301.65625 570.710938 242.796875 570.222656 212.304688 543.808594 C 212.320312 543.820312 208.476562 467.300781 240.066406 396.023438 Z M 240.066406 396.023438 "/>
<use xlink:href="#surface11" mask="url(#mask2)"/>
<path style=" stroke:none;fill-rule:nonzero;fill:rgb(11.372549%,9.411765%,48.627451%);fill-opacity:1;" d="M 275.128906 411.976562 C 275.128906 411.976562 280.191406 448.835938 288.363281 456.546875 C 296.535156 464.257812 334.628906 461.734375 349.714844 470.046875 C 349.714844 470.046875 363.917969 445.445312 389.601562 430.050781 L 354.777344 484.882812 L 324.675781 477.773438 L 287.929688 472.164062 L 284.84375 479.257812 L 279.320312 479.257812 C 279.320312 479.257812 278.703125 439.917969 275.128906 411.976562 Z M 275.128906 411.976562 "/>
<use xlink:href="#surface14" mask="url(#mask3)"/>
<path style=" stroke:none;fill-rule:nonzero;fill:rgb(11.372549%,9.411765%,48.627451%);fill-opacity:1;" d="M 419.101562 336.902344 C 434.84375 346.167969 436.609375 356.613281 439.847656 364.070312 C 431.660156 365.699219 423.195312 367.4375 416.4375 372.328125 C 408.023438 378.441406 403.46875 388.5625 399.933594 398.390625 C 396.59375 407.691406 393.785156 417.175781 391.523438 426.796875 C 399.132812 413.050781 409.949219 401.34375 423.054688 392.671875 C 430.609375 387.679688 439.949219 383.65625 448.570312 386.476562 C 441.335938 389.546875 433.148438 393.695312 431.621094 401.40625 C 431.320312 402.6875 431.371094 404.023438 431.773438 405.277344 C 433.0625 408.90625 437.578125 409.890625 441 411.65625 C 447.671875 415.089844 451.148438 422.871094 451.445312 430.414062 C 451.738281 437.957031 449.425781 445.246094 447.140625 452.382812 C 445.128906 458.636719 443.121094 464.890625 441.109375 471.140625 C 438.546875 479.132812 435.9375 487.238281 431.296875 494.246094 C 426.65625 501.257812 419.6875 507.132812 411.402344 508.503906 C 407.9375 509.171875 404.351562 508.765625 401.125 507.339844 C 398.679688 506.011719 396.40625 504.386719 394.355469 502.503906 C 384.414062 494.476562 372.46875 489.320312 359.808594 487.585938 C 376.101562 498.355469 383.8125 517.914062 390.570312 536.238281 C 387.464844 530.804688 382.996094 526.28125 377.601562 523.113281 C 376.21875 522.152344 374.574219 521.632812 372.890625 521.628906 C 368.460938 521.980469 367.058594 527.628906 364.394531 531.160156 C 361.195312 535.367188 355.351562 536.867188 350.109375 536.195312 C 344.863281 535.523438 340.042969 533.070312 335.332031 530.585938 L 275.730469 499.855469 L 271.523438 512.472656 C 271.523438 512.472656 318.996094 550.328125 391.734375 563.714844 C 391.734375 563.714844 438.980469 526.382812 455.71875 493.28125 C 472.460938 460.179688 498.46875 392.335938 498.46875 392.335938 C 498.46875 392.335938 488.949219 374.304688 472.628906 364.898438 C 472.628906 364.898438 460.445312 359.136719 457.878906 352.015625 C 455.3125 344.890625 432.417969 332.597656 432.417969 332.597656 C 432.417969 332.597656 435.390625 340.195312 419.101562 336.902344 Z M 419.101562 336.902344 "/>
<use xlink:href="#surface17" mask="url(#mask4)"/>
<path style=" stroke:none;fill-rule:nonzero;fill:rgb(60%,60%,60%);fill-opacity:1;" d="M 414.09375 207.847656 C 414.09375 207.847656 417.277344 170.734375 401.28125 167.1875 C 385.285156 163.640625 376.296875 148.960938 376.296875 148.960938 L 319.542969 164.804688 L 310.738281 198.929688 L 316.347656 216.203125 C 316.347656 216.203125 317.523438 232.226562 317.75 240.148438 C 317.972656 248.070312 317.75 254.167969 323.75 263.785156 C 329.75 273.402344 335.332031 282.953125 348.300781 291.265625 L 348.300781 313.121094 C 348.300781 313.121094 340.28125 336.523438 344.710938 350.878906 C 344.710938 350.878906 347.359375 353.683594 354.679688 349.476562 C 361.996094 345.269531 393.304688 324.351562 404.226562 302.507812 L 407.617188 246.976562 C 407.617188 246.976562 416.632812 248.378906 420.515625 240.164062 C 426.222656 232.128906 425.996094 222.765625 423.78125 215.136719 C 421.566406 207.511719 412.035156 212.445312 412.035156 212.445312 Z M 414.09375 207.847656 "/>
<path style=" stroke:none;fill-rule:nonzero;fill:rgb(45.098039%,45.098039%,45.098039%);fill-opacity:1;" d="M 348.914062 262.257812 C 352.167969 258.71875 356.851562 256.851562 361.644531 257.183594 C 361.644531 257.183594 368.472656 246.402344 375.664062 248.378906 C 375.664062 248.378906 377.882812 259.804688 369.257812 264.304688 C 358.042969 270.152344 348.914062 262.257812 348.914062 262.257812 Z M 348.914062 262.257812 "/>
<path style="fill:none;stroke-width:1;stroke-linecap:round;stroke-linejoin:round;stroke:rgb(14.901961%,19.607843%,21.960784%);stroke-opacity:1;stroke-miterlimit:4;" d="M 233.828905 114.181192 C 233.828905 114.181192 224.141294 126.911332 224.70132 140.179208 C 225.261345 153.449871 227.189395 162.858862 226.629369 173.100927 C 226.069343 183.340206 236.868647 200.489256 247.940999 207.399028 C 256.210436 212.570212 266.580666 211.689774 274.629993 206.398783 C 283.629413 200.400098 288.580488 189.620297 290.38873 179.26957 C 290.569833 178.269325 290.709143 177.26908 290.809446 176.190821 " transform="matrix(1.402,0,0,1.402,0,0)"/>
<path style="fill:none;stroke-width:1;stroke-linecap:round;stroke-linejoin:round;stroke:rgb(14.901961%,19.607843%,21.960784%);stroke-opacity:1;stroke-miterlimit:4;" d="M 247.940999 207.410173 C 247.940999 207.410173 249.509629 221.750736 247.940999 226.660017 C 246.21077 232.051311 244.121122 244.600348 245.940509 250.270261 C 247.759897 255.940175 281.810026 232.109821 288.391026 215.760409 C 288.391026 215.760409 289.299327 183.98939 291.570078 176.048725 " transform="matrix(1.402,0,0,1.402,0,0)"/>
<path style="fill:none;stroke-width:1;stroke-linecap:round;stroke-linejoin:round;stroke:rgb(14.901961%,19.607843%,21.960784%);stroke-opacity:1;stroke-miterlimit:4;" d="M 246.999264 186.70872 C 246.999264 186.70872 262.490527 191.088623 268.829128 175.098631 " transform="matrix(1.402,0,0,1.402,0,0)"/>
<path style=" stroke:none;fill-rule:nonzero;fill:rgb(14.901961%,19.607843%,21.960784%);fill-opacity:1;" d="M 348.046875 295.625 C 348.046875 295.625 352.671875 309.96875 362.65625 310.824219 C 372.636719 311.679688 397.605469 291.671875 406.117188 268.105469 L 406.117188 256.3125 C 406.117188 256.3125 399.105469 287.15625 378.582031 292.765625 C 358.058594 298.375 348.453125 291.238281 348.453125 291.238281 Z M 348.046875 295.625 "/>
<path style="fill:none;stroke-width:1;stroke-linecap:round;stroke-linejoin:round;stroke:rgb(14.901961%,19.607843%,21.960784%);stroke-opacity:1;stroke-miterlimit:4;" d="M 267.940331 177.160418 C 261.061207 176.681192 257.940665 183.440509 257.940665 183.440509 C 254.494138 183.019793 251.072686 184.38503 248.860445 187.059781 C 252.318117 190.160819 257.224612 191.049617 261.548792 189.36118 C 269.36965 186.639065 267.940331 177.160418 267.940331 177.160418 Z M 267.940331 177.160418 " transform="matrix(1.402,0,0,1.402,0,0)"/>
<path style="fill:none;stroke-width:1;stroke-linecap:round;stroke-linejoin:round;stroke:rgb(14.901961%,19.607843%,21.960784%);stroke-opacity:1;stroke-miterlimit:4;" d="M 250.690977 146.999822 C 250.774563 150.173302 250.635253 153.346781 250.270261 156.500758 C 249.899697 159.328749 248.590184 162.03972 247.50078 164.700539 C 246.500535 167.11896 244.828816 170.84132 246.219129 173.390692 C 247.798903 176.279979 253.050887 173.390692 253.050887 173.390692 " transform="matrix(1.402,0,0,1.402,0,0)"/>
<path style="fill:none;stroke-width:1;stroke-linecap:round;stroke-linejoin:round;stroke:rgb(14.901961%,19.607843%,21.960784%);stroke-opacity:1;stroke-miterlimit:4;" d="M 256.280091 172.788873 C 258.049327 173.031272 260.559692 172.788873 261.061207 169.721269 " transform="matrix(1.402,0,0,1.402,0,0)"/>
<path style="fill:none;stroke-width:2;stroke-linecap:round;stroke-linejoin:round;stroke:rgb(14.901961%,19.607843%,21.960784%);stroke-opacity:1;stroke-miterlimit:4;" d="M 262.000156 143.179944 C 265.555345 139.789141 271.144459 139.789141 274.699648 143.179944 " transform="matrix(1.402,0,0,1.402,0,0)"/>
<path style="fill:none;stroke-width:2;stroke-linecap:round;stroke-linejoin:round;stroke:rgb(14.901961%,19.607843%,21.960784%);stroke-opacity:1;stroke-miterlimit:4;" d="M 241.819722 145.679164 C 241.819722 145.679164 237.13055 139.680479 230.989769 145.679164 " transform="matrix(1.402,0,0,1.402,0,0)"/>
<path style="fill:none;stroke-width:1;stroke-linecap:round;stroke-linejoin:round;stroke:rgb(14.901961%,19.607843%,21.960784%);stroke-opacity:1;stroke-miterlimit:4;" d="M 287.128878 160.850013 C 287.128878 160.850013 292.481165 148.000067 299.460592 150.761189 C 304.26957 152.669735 304.559335 160.96982 302.009963 166.75954 C 299.460592 172.54926 298.178941 178.450428 289.681036 175.148783 " transform="matrix(1.402,0,0,1.402,0,0)"/>
<path style=" stroke:none;fill-rule:nonzero;fill:rgb(14.901961%,19.607843%,21.960784%);fill-opacity:1;" d="M 403.886719 222.75 C 403.886719 222.75 396.683594 220.199219 395.351562 208.492188 C 394.019531 196.785156 401.195312 185.0625 398.53125 176.652344 C 395.867188 168.238281 374.878906 172.445312 370.101562 157.78125 C 370.101562 157.78125 354.339844 169.53125 323.832031 167.007812 C 323.832031 167.007812 317.398438 177.96875 316.277344 184.671875 C 314.773438 195.148438 314.8125 205.792969 316.390625 216.257812 C 316.390625 216.621094 316.515625 216.972656 316.585938 217.339844 C 318.773438 228.75 307.878906 201.804688 308.171875 190.292969 C 308.46875 178.78125 301.527344 164.160156 310.570312 153.265625 C 319.613281 142.375 352.769531 135.992188 359.304688 130.875 C 365.835938 125.757812 378.539062 139.386719 393.21875 144.40625 C 407.898438 149.425781 420.066406 155.410156 418.214844 176.230469 C 416.367188 197.050781 418.316406 199.839844 418.398438 210.804688 C 418.398438 210.832031 411.613281 208.28125 403.886719 222.75 Z M 403.886719 222.75 "/>
<path style=" stroke:none;fill-rule:nonzero;fill:rgb(14.901961%,19.607843%,21.960784%);fill-opacity:1;" d="M 376.253906 215.90625 C 376.253906 218.710938 375.175781 221.039062 373.828125 221.039062 C 372.484375 221.039062 371.417969 218.738281 371.417969 215.90625 C 371.417969 213.074219 372.496094 210.789062 373.828125 210.789062 C 375.160156 210.789062 376.253906 213.105469 376.253906 215.90625 Z M 376.253906 215.90625 "/>
<path style=" stroke:none;fill-rule:nonzero;fill:rgb(14.901961%,19.607843%,21.960784%);fill-opacity:1;" d="M 339.03125 215.90625 C 339.03125 218.710938 337.953125 221.039062 336.621094 221.039062 C 335.289062 221.039062 334.207031 218.738281 334.207031 215.90625 C 334.207031 213.074219 335.289062 210.789062 336.621094 210.789062 C 337.953125 210.789062 339.03125 213.105469 339.03125 215.90625 Z M 339.03125 215.90625 "/>
<path style="fill:none;stroke-width:1;stroke-linecap:round;stroke-linejoin:round;stroke:rgb(14.901961%,19.607843%,21.960784%);stroke-opacity:1;stroke-miterlimit:4;" d="M 262.000156 158.880171 C 262.000156 158.880171 265.569276 162.669401 270.091276 163.209923 " transform="matrix(1.402,0,0,1.402,0,0)"/>
<path style="fill:none;stroke-width:1;stroke-linecap:round;stroke-linejoin:round;stroke:rgb(14.901961%,19.607843%,21.960784%);stroke-opacity:1;stroke-miterlimit:4;" d="M 237.679431 163.209923 C 237.679431 163.209923 244.21028 162.750201 245.681393 158.880171 " transform="matrix(1.402,0,0,1.402,0,0)"/>
<path style="fill:none;stroke-width:1;stroke-linecap:round;stroke-linejoin:round;stroke:rgb(14.901961%,19.607843%,21.960784%);stroke-opacity:1;stroke-miterlimit:4;" d="M 252.858639 252.699826 C 257.720555 249.609932 264.151101 250.768991 269.469954 252.958943 C 272.389889 254.170939 275.170515 255.689417 278.079306 256.959923 C 279.519771 257.595177 281.002028 258.124554 282.520506 258.539698 C 286.170426 259.489791 284.860913 254.959433 284.649162 252.931081 C 284.351039 250.019503 284.139288 247.099568 283.791013 244.21028 C 283.646131 243.611247 283.715785 242.981567 283.988833 242.429899 C 284.348252 241.984108 284.849768 241.677626 285.409794 241.560605 C 291.820836 239.560115 298.730608 240.440554 305.409125 240.56036 C 306.016517 240.632801 306.62948 240.515781 307.170003 240.228803 C 308.170248 239.579618 308.0588 238.111292 307.791325 236.949447 C 305.47878 227.069588 297.32915 217.239881 288.46904 212.299951 " transform="matrix(1.402,0,0,1.402,0,0)"/>
<path style="fill:none;stroke-width:1;stroke-linecap:round;stroke-linejoin:round;stroke:rgb(14.901961%,19.607843%,21.960784%);stroke-opacity:1;stroke-miterlimit:4;" d="M 248.501025 213.899229 C 244.090473 215.740906 239.560115 217.649452 235.759741 220.469084 C 234.380572 221.474902 233.110066 222.622816 231.970511 223.890536 C 231.051065 224.765402 230.471536 225.938392 230.340585 227.200539 C 230.390736 228.38746 230.973052 229.490794 231.928718 230.201275 C 232.600192 230.752942 233.34132 231.215451 234.129815 231.580443 C 235.968705 232.449737 238.130795 233.299527 238.910931 235.149563 C 239.100392 235.536845 239.170047 235.971492 239.108751 236.400566 C 239.011234 236.773917 238.818986 237.119405 238.548725 237.400811 C 237.030247 239.250847 234.349924 240.680167 234.55053 243.070725 C 234.678696 244.920761 236.551021 246.068674 238.208809 246.890603 C 239.869383 247.709745 241.811363 248.559535 242.379748 250.328771 " transform="matrix(1.402,0,0,1.402,0,0)"/>
<path style="fill:none;stroke-width:1;stroke-linecap:round;stroke-linejoin:round;stroke:rgb(100%,100%,100%);stroke-opacity:1;stroke-miterlimit:4;" d="M 222.388775 120.129725 C 223.040745 116.128745 227.220043 113.548725 231.240527 112.899541 C 235.261011 112.250357 239.390157 112.899541 243.441289 112.551266 C 250.292551 111.871434 256.516918 108.257734 260.501181 102.640759 " transform="matrix(1.402,0,0,1.402,0,0)"/>
<path style="fill:none;stroke-width:1;stroke-linecap:round;stroke-linejoin:round;stroke:rgb(100%,100%,100%);stroke-opacity:1;stroke-miterlimit:4;" d="M 226.938637 108.890201 C 234.19947 104.599456 244.399741 109.06016 251.479471 104.47965 C 253.482748 103.022468 255.226908 101.236515 256.639511 99.199804 " transform="matrix(1.402,0,0,1.402,0,0)"/>
<path style="fill:none;stroke-width:1;stroke-linecap:round;stroke-linejoin:round;stroke:rgb(14.901961%,19.607843%,21.960784%);stroke-opacity:1;stroke-miterlimit:4;" d="M 319.549082 273.000067 C 293.551065 278.190754 283.849523 297.320792 283.849523 297.320792 L 253.050887 345.83129 " transform="matrix(1.402,0,0,1.402,0,0)"/>
<path style="fill:none;stroke-width:1;stroke-linecap:round;stroke-linejoin:round;stroke:rgb(14.901961%,19.607843%,21.960784%);stroke-opacity:1;stroke-miterlimit:4;" d="M 297.568763 267.759228 C 299.728067 265.761524 302.171563 264.095377 304.821238 262.819298 " transform="matrix(1.402,0,0,1.402,0,0)"/>
<path style="fill:none;stroke-width:1;stroke-linecap:round;stroke-linejoin:round;stroke:rgb(14.901961%,19.607843%,21.960784%);stroke-opacity:1;stroke-miterlimit:4;" d="M 279.38882 304.381018 C 279.38882 304.381018 282.670961 286.858617 292.091098 273.95016 " transform="matrix(1.402,0,0,1.402,0,0)"/>
<path style="fill:none;stroke-width:1;stroke-linecap:round;stroke-linejoin:round;stroke:rgb(14.901961%,19.607843%,21.960784%);stroke-opacity:1;stroke-miterlimit:4;" d="M 199.229895 341.760654 C 199.229895 341.760654 197.881375 288.090117 193.23121 279.890335 " transform="matrix(1.402,0,0,1.402,0,0)"/>
<path style="fill:none;stroke-width:1;stroke-linecap:round;stroke-linejoin:round;stroke:rgb(14.901961%,19.607843%,21.960784%);stroke-opacity:1;stroke-miterlimit:4;" d="M 307.830332 236.929944 C 307.830332 236.929944 322.831223 245.929364 329.490237 254.391049 C 336.149251 262.849947 351.891271 268.469708 355.49104 279.890335 C 355.49104 279.890335 334.758938 345.209968 313.040522 368.820212 C 291.319321 392.430456 279.360958 402.120854 279.360958 402.120854 C 279.360958 402.120854 227.111381 393.040634 193.220065 364.579618 L 205.340028 336.72878 C 205.340028 336.72878 239.509963 341.050174 253.020239 345.850794 C 266.530514 350.648627 279.360958 379.71982 279.360958 379.71982 " transform="matrix(1.402,0,0,1.402,0,0)"/>
<path style="fill:none;stroke-width:1;stroke-linecap:round;stroke-linejoin:round;stroke:rgb(14.901961%,19.607843%,21.960784%);stroke-opacity:1;stroke-miterlimit:4;" d="M 253.050887 345.850794 C 253.050887 345.850794 276.970399 350.500958 284.741106 361.389421 " transform="matrix(1.402,0,0,1.402,0,0)"/>
<path style="fill:none;stroke-width:1;stroke-linecap:round;stroke-linejoin:round;stroke:rgb(14.901961%,19.607843%,21.960784%);stroke-opacity:1;stroke-miterlimit:4;" d="M 321.88113 357.051311 L 304.821238 432.100348 L 200.36945 432.100348 L 196.808688 405.871077 " transform="matrix(1.402,0,0,1.402,0,0)"/>
<path style="fill:none;stroke-width:1;stroke-linecap:round;stroke-linejoin:round;stroke:rgb(14.901961%,19.607843%,21.960784%);stroke-opacity:1;stroke-miterlimit:4;" d="M 245.349835 398.440286 C 239.579618 410.259339 231.970511 407.648672 231.970511 407.648672 C 173.120431 409.880416 151.441022 387.888953 151.441022 387.888953 C 151.441022 387.888953 148.440286 356.959366 160.011368 315.21933 C 171.579663 273.479293 193.250713 236.929944 193.250713 236.929944 C 202.860311 230.541191 224.300107 225.55111 230.348943 224.230452 L 231.970511 223.890536 " transform="matrix(1.402,0,0,1.402,0,0)"/>
<path style="fill:none;stroke-width:1;stroke-linecap:round;stroke-linejoin:round;stroke:rgb(14.901961%,19.607843%,21.960784%);stroke-opacity:1;stroke-miterlimit:4;" d="M 232.001159 407.648672 C 232.001159 407.648672 228.888976 407.138797 229.680256 386.52093 " transform="matrix(1.402,0,0,1.402,0,0)"/>
<path style="fill:none;stroke-width:1;stroke-linecap:round;stroke-linejoin:round;stroke:rgb(14.901961%,19.607843%,21.960784%);stroke-opacity:1;stroke-miterlimit:4;" d="M 194.838846 365.900276 C 194.838846 365.900276 180.138864 360.720734 161.931058 373.319922 " transform="matrix(1.402,0,0,1.402,0,0)"/>
<path style="fill:none;stroke-width:1;stroke-linecap:round;stroke-linejoin:round;stroke:rgb(14.901961%,19.607843%,21.960784%);stroke-opacity:1;stroke-miterlimit:4;" d="M 165.229917 361.389421 C 165.229917 361.389421 184.490906 355.660998 193.23121 364.838735 " transform="matrix(1.402,0,0,1.402,0,0)"/>
<path style="fill-rule:nonzero;fill:rgb(60%,60%,60%);fill-opacity:1;stroke-width:1;stroke-linecap:butt;stroke-linejoin:miter;stroke:rgb(14.901961%,19.607843%,21.960784%);stroke-opacity:1;stroke-miterlimit:10;" d="M 191.14992 364.320502 L 193.64914 365.568719 L 203.169579 341.791303 C 203.169579 341.791303 193.309223 340.18088 177.689796 359.63133 C 182.568429 359.687054 187.293821 361.333697 191.14992 364.320502 Z M 191.14992 364.320502 " transform="matrix(1.402,0,0,1.402,0,0)"/>
<path style="fill-rule:nonzero;fill:rgb(60%,60%,60%);fill-opacity:1;stroke-width:1;stroke-linecap:butt;stroke-linejoin:miter;stroke:rgb(14.901961%,19.607843%,21.960784%);stroke-opacity:1;stroke-miterlimit:10;" d="M 229.649608 386.52093 L 229.649608 397.08898 C 229.649608 397.08898 243.120876 401.089961 253.089894 395.339248 Z M 229.649608 386.52093 " transform="matrix(1.402,0,0,1.402,0,0)"/>
<path style=" stroke:none;fill-rule:nonzero;fill:rgb(14.901961%,19.607843%,21.960784%);fill-opacity:1;" d="M 424.328125 337.109375 C 424.34375 337.382812 424.316406 337.660156 424.246094 337.925781 C 423.65625 340.238281 409.257812 394.59375 363.175781 418.777344 C 362.773438 418.992188 362.324219 419.101562 361.871094 419.101562 C 360.582031 419.097656 359.457031 418.21875 359.148438 416.96875 C 358.839844 415.714844 359.425781 414.414062 360.566406 413.8125 C 402.625 391.761719 417.445312 341.5 418.734375 336.871094 Z M 424.328125 337.109375 "/>
<path style=" stroke:none;fill-rule:nonzero;fill:rgb(14.901961%,19.607843%,21.960784%);fill-opacity:1;" d="M 325.164062 322.699219 C 317.878906 339.339844 313.949219 357.253906 313.597656 375.414062 C 313.597656 376.886719 313.597656 378.386719 313.597656 379.914062 C 313.597656 380.292969 313.597656 380.671875 313.597656 381.050781 C 313.179688 381.0625 312.765625 381.105469 312.351562 381.175781 C 310.835938 381.414062 309.363281 381.886719 307.992188 382.578125 C 307.992188 380.515625 307.992188 378.511719 307.992188 376.535156 C 308.59375 345.074219 317.988281 323.664062 322.992188 314.414062 L 325.265625 313.9375 C 323.976562 315.160156 323.164062 316.808594 322.980469 318.578125 C 323.0625 320.207031 323.863281 321.714844 325.164062 322.699219 Z M 325.164062 322.699219 "/>
<path style="fill-rule:nonzero;fill:rgb(100%,100%,100%);fill-opacity:1;stroke-width:1;stroke-linecap:round;stroke-linejoin:round;stroke:rgb(14.901961%,19.607843%,21.960784%);stroke-opacity:1;stroke-miterlimit:4;" d="M 271.308845 289.681036 C 273.649251 292.929743 271.72956 298.329396 267.009741 301.739702 C 262.289921 305.150009 256.569856 305.269815 254.22109 302.021108 C 251.869539 298.769615 253.78923 293.369963 258.50905 289.959656 C 263.228869 286.549349 268.999086 286.429543 271.308845 289.681036 Z M 271.308845 289.681036 " transform="matrix(1.402,0,0,1.402,0,0)"/>
<path style="fill-rule:nonzero;fill:rgb(100%,100%,100%);fill-opacity:1;stroke-width:1;stroke-linecap:round;stroke-linejoin:round;stroke:rgb(14.901961%,19.607843%,21.960784%);stroke-opacity:1;stroke-miterlimit:4;" d="M 265.491262 287.750201 C 267.14905 290.048814 265.789386 293.868692 262.490527 296.278754 C 259.188882 298.688815 255.098743 298.78076 253.491106 296.47936 C 251.880684 294.180746 253.190197 290.360868 256.489056 287.950807 C 259.790701 285.540745 263.830688 285.459946 265.491262 287.750201 Z M 265.491262 287.750201 " transform="matrix(1.402,0,0,1.402,0,0)"/>
<path style="fill-rule:nonzero;fill:rgb(14.901961%,19.607843%,21.960784%);fill-opacity:1;stroke-width:1;stroke-linecap:butt;stroke-linejoin:miter;stroke:rgb(14.901961%,19.607843%,21.960784%);stroke-opacity:1;stroke-miterlimit:10;" d="M 239.061386 328.339537 C 238.175374 328.927425 236.985668 328.721246 236.350415 327.871456 C 235.715161 327.021665 235.854471 325.820814 236.670827 325.140982 C 236.840785 324.998886 243.549951 319.289965 240.610512 300.059625 C 240.359754 298.429699 240.039341 296.691111 239.610267 294.860579 C 238.33976 289.029066 236.381063 281.651213 232.368937 276.229271 C 230.429743 273.323266 227.111381 271.640402 223.620275 271.790857 C 223.322151 271.799215 223.024028 271.829864 222.728691 271.880015 C 221.647646 272.049973 220.600036 272.387103 219.619294 272.88026 C 216.632489 274.423814 214.364524 277.070703 213.300196 280.2609 L 212.940777 281.261145 C 210.672811 287.393567 208.817203 293.670872 207.39067 300.051266 C 205.791392 307.899987 205.250869 316.130416 208.090005 321.88113 C 209.627987 325.071327 212.450406 327.459099 215.849568 328.450985 C 216.782944 328.757467 217.354115 329.69363 217.200874 330.663227 C 217.047633 331.632824 216.211773 332.348877 215.231032 332.348877 C 215.01928 332.348877 214.810316 332.315442 214.609709 332.25136 C 210.188013 330.922343 206.524162 327.804587 204.509741 323.650366 C 201.311185 317.180813 201.729115 308.370854 203.350682 300.051266 C 204.785574 293.208363 206.730341 286.48248 209.17105 279.929342 L 209.53047 278.929097 C 211.124175 274.106188 214.84375 270.283524 219.619294 268.558867 C 220.43565 268.277461 221.277082 268.068496 222.129659 267.940331 C 222.639533 267.870676 223.129904 267.820524 223.650923 267.789876 C 228.406963 267.658925 232.903887 269.951966 235.589782 273.880506 C 240.050486 279.87919 242.170783 287.808711 243.519303 294.030292 C 243.99017 296.170092 244.34959 298.178941 244.619851 300.079128 C 247.7794 321.63873 239.448667 328.060917 239.061386 328.339537 Z M 239.061386 328.339537 " transform="matrix(1.402,0,0,1.402,0,0)"/>
<path style="fill-rule:nonzero;fill:rgb(14.901961%,19.607843%,21.960784%);fill-opacity:1;stroke-width:1;stroke-linecap:butt;stroke-linejoin:miter;stroke:rgb(14.901961%,19.607843%,21.960784%);stroke-opacity:1;stroke-miterlimit:10;" d="M 213.829574 332.000602 C 213.829574 332.000602 221.079262 335.001337 222.920939 332.000602 C 224.75983 328.999866 223.269214 327.59005 220.758849 327.350437 C 218.259629 327.222272 215.752051 327.222272 213.250045 327.350437 Z M 213.829574 332.000602 " transform="matrix(1.402,0,0,1.402,0,0)"/>
<path style="fill-rule:nonzero;fill:rgb(100%,100%,100%);fill-opacity:1;stroke-width:1;stroke-linecap:round;stroke-linejoin:round;stroke:rgb(14.901961%,19.607843%,21.960784%);stroke-opacity:1;stroke-miterlimit:4;" d="M 217.159081 331.000357 C 216.891606 331.822285 216.125401 332.379525 215.258894 332.379525 C 215.049929 332.379525 214.840964 332.34609 214.640358 332.279222 C 210.218661 330.952991 206.55481 327.832449 204.540389 323.681014 C 201.339047 317.208675 201.759763 308.398716 203.38133 300.079128 L 207.379525 300.079128 C 205.780247 307.930635 205.239725 316.161065 208.078861 321.908992 C 209.619628 325.101975 212.439261 327.489747 215.841209 328.478847 C 216.351083 328.63766 216.777372 328.991508 217.025343 329.465161 C 217.273315 329.938815 217.323466 330.490482 217.159081 331.000357 Z M 217.159081 331.000357 " transform="matrix(1.402,0,0,1.402,0,0)"/>
<path style="fill-rule:nonzero;fill:rgb(14.901961%,19.607843%,21.960784%);fill-opacity:1;stroke-width:1;stroke-linecap:butt;stroke-linejoin:miter;stroke:rgb(14.901961%,19.607843%,21.960784%);stroke-opacity:1;stroke-miterlimit:10;" d="M 232.380082 326.169089 C 231.769905 326.8935 231.496857 327.843594 231.630595 328.779757 C 232.042952 330.192359 233.405403 331.111805 234.870943 330.96135 C 236.289118 330.771888 237.587487 330.058622 238.509718 328.960859 C 239.509963 327.840808 242.97878 320.51032 239.76908 321.769682 C 237.439818 322.65012 233.940353 324.140736 232.380082 326.169089 Z M 232.380082 326.169089 " transform="matrix(1.402,0,0,1.402,0,0)"/>
<path style="fill-rule:nonzero;fill:rgb(100%,100%,100%);fill-opacity:1;stroke-width:1;stroke-linecap:round;stroke-linejoin:round;stroke:rgb(14.901961%,19.607843%,21.960784%);stroke-opacity:1;stroke-miterlimit:4;" d="M 239.061386 328.339537 C 238.175374 328.927425 236.985668 328.721246 236.350415 327.871456 C 235.715161 327.021665 235.854471 325.820814 236.670827 325.140982 C 236.840785 324.998886 243.549951 319.289965 240.610512 300.059625 L 244.608706 300.059625 C 247.7794 321.63873 239.448667 328.060917 239.061386 328.339537 Z M 239.061386 328.339537 " transform="matrix(1.402,0,0,1.402,0,0)"/>
<use xlink:href="#surface20" mask="url(#mask5)"/>
<use xlink:href="#surface23" mask="url(#mask6)"/>
<path style="fill:none;stroke-width:1;stroke-linecap:butt;stroke-linejoin:miter;stroke:rgb(14.901961%,19.607843%,21.960784%);stroke-opacity:1;stroke-miterlimit:10;" d="M 256.99893 151.58869 C 256.99893 151.58869 269.58976 145.049483 281.160842 151.58869 C 281.160842 151.58869 281.350303 161.240081 276.978758 165.210414 C 275.429632 166.62023 268.330399 166.859843 265.638931 166.62023 C 254.71982 165.63113 256.99893 151.58869 256.99893 151.58869 Z M 256.99893 151.58869 " transform="matrix(1.402,0,0,1.402,0,0)"/>
<path style="fill:none;stroke-width:1;stroke-linecap:butt;stroke-linejoin:miter;stroke:rgb(14.901961%,19.607843%,21.960784%);stroke-opacity:1;stroke-miterlimit:10;" d="M 249.100058 151.58869 C 249.100058 151.58869 236.509228 145.049483 224.949291 151.58869 C 224.949291 151.58869 224.75983 161.240081 229.12023 165.210414 C 230.669356 166.62023 237.779734 166.859843 240.460057 166.62023 C 251.379168 165.63113 249.100058 151.58869 249.100058 151.58869 Z M 249.100058 151.58869 " transform="matrix(1.402,0,0,1.402,0,0)"/>
<path style="fill:none;stroke-width:1;stroke-linecap:butt;stroke-linejoin:miter;stroke:rgb(14.901961%,19.607843%,21.960784%);stroke-opacity:1;stroke-miterlimit:10;" d="M 249.100058 151.58869 C 249.100058 151.58869 251.919691 149.521331 256.99893 151.58869 " transform="matrix(1.402,0,0,1.402,0,0)"/>
<path style="fill:none;stroke-width:1;stroke-linecap:butt;stroke-linejoin:miter;stroke:rgb(14.901961%,19.607843%,21.960784%);stroke-opacity:1;stroke-miterlimit:10;" d="M 281.160842 151.58869 L 286.421184 154.0294 " transform="matrix(1.402,0,0,1.402,0,0)"/>
<path style="fill-rule:nonzero;fill:rgb(100%,100%,100%);fill-opacity:1;stroke-width:1;stroke-linecap:round;stroke-linejoin:round;stroke:rgb(14.901961%,19.607843%,21.960784%);stroke-opacity:1;stroke-miterlimit:4;" d="M 79.819009 458.719686 L 116.830867 423.761256 L 410.568607 423.761256 L 432.810828 458.719686 L 79.819009 458.719686 " transform="matrix(1.402,0,0,1.402,0,0)"/>
<path style="fill-rule:nonzero;fill:rgb(14.901961%,19.607843%,21.960784%);fill-opacity:1;stroke-width:1;stroke-linecap:round;stroke-linejoin:round;stroke:rgb(14.901961%,19.607843%,21.960784%);stroke-opacity:1;stroke-miterlimit:4;" d="M 79.819009 458.719686 L 432.810828 458.719686 L 432.810828 468.128678 L 79.819009 468.128678 Z M 79.819009 458.719686 " transform="matrix(1.402,0,0,1.402,0,0)"/>
<path style="fill-rule:nonzero;fill:rgb(100%,100%,100%);fill-opacity:1;stroke-width:1;stroke-linecap:butt;stroke-linejoin:miter;stroke:rgb(14.901961%,19.607843%,21.960784%);stroke-opacity:1;stroke-miterlimit:10;" d="M 116.830867 450.079685 L 116.830867 442.829997 L 174.831156 442.829997 L 174.831156 450.079685 Z M 116.830867 450.079685 " transform="matrix(1.402,0,0,1.402,0,0)"/>
<path style="fill-rule:nonzero;fill:rgb(100%,100%,100%);fill-opacity:1;stroke-width:1;stroke-linecap:round;stroke-linejoin:round;stroke:rgb(14.901961%,19.607843%,21.960784%);stroke-opacity:1;stroke-miterlimit:4;" d="M 116.830867 442.829997 L 151.089961 419.849434 L 196.808688 420.930479 L 174.831156 442.829997 Z M 116.830867 442.829997 " transform="matrix(1.402,0,0,1.402,0,0)"/>
<path style="fill-rule:nonzero;fill:rgb(100%,100%,100%);fill-opacity:1;stroke-width:1;stroke-linecap:round;stroke-linejoin:round;stroke:rgb(14.901961%,19.607843%,21.960784%);stroke-opacity:1;stroke-miterlimit:4;" d="M 174.831156 450.079685 L 196.808688 428.06036 L 196.808688 420.930479 L 174.831156 442.829997 Z M 174.831156 450.079685 " transform="matrix(1.402,0,0,1.402,0,0)"/>
<path style="fill:none;stroke-width:2;stroke-linecap:round;stroke-linejoin:round;stroke:rgb(14.901961%,19.607843%,21.960784%);stroke-opacity:1;stroke-miterlimit:4;" d="M 173.259741 440.999465 C 173.259741 440.999465 168.629079 441.91891 168.629079 445.931036 C 168.629079 449.940375 172.63006 451.118937 172.63006 451.118937 " transform="matrix(1.402,0,0,1.402,0,0)"/>
<path style="fill:none;stroke-width:2;stroke-linecap:round;stroke-linejoin:round;stroke:rgb(14.901961%,19.607843%,21.960784%);stroke-opacity:1;stroke-miterlimit:4;" d="M 168.629079 440.999465 C 168.629079 440.999465 164.001204 441.91891 164.001204 445.931036 C 164.001204 449.940375 167.999398 451.118937 167.999398 451.118937 " transform="matrix(1.402,0,0,1.402,0,0)"/>
<path style="fill:none;stroke-width:2;stroke-linecap:round;stroke-linejoin:round;stroke:rgb(14.901961%,19.607843%,21.960784%);stroke-opacity:1;stroke-miterlimit:4;" d="M 164.001204 440.999465 C 164.001204 440.999465 159.370542 441.91891 159.370542 445.931036 C 159.370542 449.940375 163.368737 451.118937 163.368737 451.118937 " transform="matrix(1.402,0,0,1.402,0,0)"/>
<path style="fill:none;stroke-width:2;stroke-linecap:round;stroke-linejoin:round;stroke:rgb(14.901961%,19.607843%,21.960784%);stroke-opacity:1;stroke-miterlimit:4;" d="M 159.370542 440.999465 C 159.370542 440.999465 154.739881 441.91891 154.739881 445.931036 C 154.739881 449.940375 158.740861 451.118937 158.740861 451.118937 " transform="matrix(1.402,0,0,1.402,0,0)"/>
<path style="fill:none;stroke-width:2;stroke-linecap:round;stroke-linejoin:round;stroke:rgb(14.901961%,19.607843%,21.960784%);stroke-opacity:1;stroke-miterlimit:4;" d="M 154.739881 440.999465 C 154.739881 440.999465 150.109219 441.91891 150.109219 445.931036 C 150.109219 449.940375 154.1102 451.118937 154.1102 451.118937 " transform="matrix(1.402,0,0,1.402,0,0)"/>
<path style="fill:none;stroke-width:2;stroke-linecap:round;stroke-linejoin:round;stroke:rgb(14.901961%,19.607843%,21.960784%);stroke-opacity:1;stroke-miterlimit:4;" d="M 150.109219 440.999465 C 150.109219 440.999465 145.481344 441.91891 145.481344 445.931036 C 145.481344 449.940375 149.479538 451.118937 149.479538 451.118937 " transform="matrix(1.402,0,0,1.402,0,0)"/>
<path style="fill:none;stroke-width:2;stroke-linecap:round;stroke-linejoin:round;stroke:rgb(14.901961%,19.607843%,21.960784%);stroke-opacity:1;stroke-miterlimit:4;" d="M 145.481344 440.999465 C 145.481344 440.999465 140.850682 441.91891 140.850682 445.931036 C 140.850682 449.940375 144.848877 451.118937 144.848877 451.118937 " transform="matrix(1.402,0,0,1.402,0,0)"/>
<path style="fill:none;stroke-width:2;stroke-linecap:round;stroke-linejoin:round;stroke:rgb(14.901961%,19.607843%,21.960784%);stroke-opacity:1;stroke-miterlimit:4;" d="M 140.850682 440.999465 C 140.850682 440.999465 136.220021 441.91891 136.220021 445.931036 C 136.220021 449.940375 140.221001 451.118937 140.221001 451.118937 " transform="matrix(1.402,0,0,1.402,0,0)"/>
<path style="fill:none;stroke-width:2;stroke-linecap:round;stroke-linejoin:round;stroke:rgb(14.901961%,19.607843%,21.960784%);stroke-opacity:1;stroke-miterlimit:4;" d="M 135.64885 440.999465 C 135.64885 440.999465 131.020975 441.91891 131.020975 445.931036 C 131.020975 449.940375 135.019169 451.118937 135.019169 451.118937 " transform="matrix(1.402,0,0,1.402,0,0)"/>
<path style="fill:none;stroke-width:2;stroke-linecap:round;stroke-linejoin:round;stroke:rgb(14.901961%,19.607843%,21.960784%);stroke-opacity:1;stroke-miterlimit:4;" d="M 130.438659 440.999465 C 130.438659 440.999465 125.810784 441.91891 125.810784 445.931036 C 125.810784 449.940375 129.808978 451.118937 129.808978 451.118937 " transform="matrix(1.402,0,0,1.402,0,0)"/>
<path style="fill:none;stroke-width:2;stroke-linecap:round;stroke-linejoin:round;stroke:rgb(14.901961%,19.607843%,21.960784%);stroke-opacity:1;stroke-miterlimit:4;" d="M 124.648939 440.999465 C 124.648939 440.999465 120.021064 441.91891 120.021064 445.931036 C 120.021064 449.940375 124.019258 451.118937 124.019258 451.118937 " transform="matrix(1.402,0,0,1.402,0,0)"/>
<path style="fill:none;stroke-width:0.75;stroke-linecap:round;stroke-linejoin:round;stroke:rgb(14.901961%,19.607843%,21.960784%);stroke-opacity:1;stroke-miterlimit:4;" d="M 153.998752 425.480341 C 150.805769 427.241218 148.273114 429.996768 146.790857 433.329061 C 151.000802 432.000045 154.330309 428.999309 157.520506 426.00136 L 154.060048 434.580064 C 157.289252 434.318162 160.203615 432.532208 161.90041 429.771086 C 161.345957 430.007913 160.919668 430.473208 160.727421 431.047165 C 160.537959 431.618335 160.599256 432.24523 160.900165 432.769035 C 163.800597 432.351106 165.650633 429.550976 167.110601 427.009963 C 167.378076 428.422566 167.481165 429.86303 167.419869 431.300709 C 169.843861 431.646197 172.318006 431.334143 174.580399 430.389622 " transform="matrix(1.402,0,0,1.402,0,0)"/>
<path style="fill-rule:nonzero;fill:rgb(100%,100%,100%);fill-opacity:1;stroke-width:1;stroke-linecap:round;stroke-linejoin:round;stroke:rgb(14.901961%,19.607843%,21.960784%);stroke-opacity:1;stroke-miterlimit:4;" d="M 307.799683 388.738744 L 408.60991 388.738744 L 408.60991 444.089359 L 307.799683 444.089359 Z M 307.799683 388.738744 " transform="matrix(1.402,0,0,1.402,0,0)"/>
<path style="fill-rule:nonzero;fill:rgb(100%,100%,100%);fill-opacity:1;stroke-width:1;stroke-linecap:round;stroke-linejoin:round;stroke:rgb(14.901961%,19.607843%,21.960784%);stroke-opacity:1;stroke-miterlimit:4;" d="M 307.409616 444.081 L 291.199514 428.670538 L 291.199514 373.319922 L 307.409616 388.738744 Z M 307.409616 444.081 " transform="matrix(1.402,0,0,1.402,0,0)"/>
<path style="fill-rule:nonzero;fill:rgb(100%,100%,100%);fill-opacity:1;stroke-width:1;stroke-linecap:round;stroke-linejoin:round;stroke:rgb(14.901961%,19.607843%,21.960784%);stroke-opacity:1;stroke-miterlimit:4;" d="M 408.60991 388.738744 L 392.399808 373.319922 L 291.600727 373.319922 L 307.799683 388.738744 Z M 408.60991 388.738744 " transform="matrix(1.402,0,0,1.402,0,0)"/>
<path style="fill-rule:nonzero;fill:rgb(11.372549%,9.411765%,48.627451%);fill-opacity:1;stroke-width:1;stroke-linecap:butt;stroke-linejoin:miter;stroke:rgb(14.901961%,19.607843%,21.960784%);stroke-opacity:1;stroke-miterlimit:10;" d="M 371.539542 409.498707 L 362.62928 409.498707 L 362.62928 400.178874 L 350.069098 400.178874 L 350.069098 409.498707 L 340.350838 409.498707 L 340.350838 422.058889 L 350.069098 422.058889 L 350.069098 431.370364 L 362.62928 431.370364 L 362.62928 422.058889 L 371.539542 422.058889 Z M 371.539542 409.498707 " transform="matrix(1.402,0,0,1.402,0,0)"/>
<path style="fill-rule:nonzero;fill:rgb(100%,100%,100%);fill-opacity:1;stroke-width:1;stroke-linecap:round;stroke-linejoin:round;stroke:rgb(14.901961%,19.607843%,21.960784%);stroke-opacity:1;stroke-miterlimit:4;" d="M 357.32993 388.738744 L 341.119829 373.319922 " transform="matrix(1.402,0,0,1.402,0,0)"/>
<path style="fill-rule:nonzero;fill:rgb(100%,100%,100%);fill-opacity:1;stroke-width:1;stroke-linecap:round;stroke-linejoin:round;stroke:rgb(14.901961%,19.607843%,21.960784%);stroke-opacity:1;stroke-miterlimit:4;" d="M 153.070287 132.200712 C 153.070287 148.828691 139.588621 162.310357 122.960642 162.310357 C 106.330693 162.308386 92.850997 148.828691 92.850997 132.200712 C 92.849027 115.570762 106.330693 102.089096 122.960642 102.091066 C 139.588621 102.091066 153.068317 115.570762 153.070287 132.200712 Z M 153.070287 132.200712 " transform="matrix(0.991364,-0.991364,0.991364,0.991364,-80.57294,176.18934)"/>
<path style=" stroke:none;fill-rule:nonzero;fill:rgb(100%,100%,100%);fill-opacity:1;" d="M 207.496094 178.882812 C 207.496094 184.675781 203.800781 189.824219 198.3125 191.679688 L 179.457031 198.03125 L 156.503906 205.785156 C 149.46875 208.097656 141.882812 204.304688 139.511719 197.285156 C 137.144531 190.265625 140.882812 182.648438 147.882812 180.226562 L 168.730469 173.21875 L 189.675781 166.207031 C 193.789062 164.824219 198.3125 165.5 201.839844 168.023438 C 205.367188 170.550781 207.464844 174.613281 207.480469 178.953125 Z M 207.496094 178.882812 "/>
<path style=" stroke:none;fill-rule:nonzero;fill:rgb(11.372549%,9.411765%,48.627451%);fill-opacity:1;" d="M 207.496094 178.882812 C 207.496094 184.675781 203.800781 189.824219 198.3125 191.679688 L 179.457031 198.03125 C 178.953125 188.742188 175.148438 179.9375 168.730469 173.203125 L 189.675781 166.191406 C 193.789062 164.808594 198.3125 165.488281 201.839844 168.011719 C 205.367188 170.535156 207.464844 174.601562 207.480469 178.9375 Z M 207.496094 178.882812 "/>
<path style="fill:none;stroke-width:1;stroke-linecap:round;stroke-linejoin:round;stroke:rgb(14.901961%,19.607843%,21.960784%);stroke-opacity:1;stroke-miterlimit:4;" d="M 148.000067 127.591164 C 148.000067 131.723096 145.364323 135.395306 141.449715 136.71875 L 128.000736 141.249108 L 111.629034 146.779712 C 106.611091 148.429141 101.200294 145.723743 99.509072 140.716945 C 97.820636 135.710146 100.487027 130.27706 105.479895 128.549617 L 120.349835 123.551177 L 135.28943 118.549951 C 138.223297 117.563637 141.449715 118.045649 143.965652 119.845533 C 146.481589 121.648203 147.977777 124.54585 147.988922 127.641316 Z M 148.000067 127.591164 " transform="matrix(1.402,0,0,1.402,0,0)"/>
<path style="fill:none;stroke-width:1;stroke-linecap:round;stroke-linejoin:round;stroke:rgb(14.901961%,19.607843%,21.960784%);stroke-opacity:1;stroke-miterlimit:4;" d="M 128.000736 141.249108 C 127.694254 134.612384 124.972138 128.31279 120.349835 123.540032 " transform="matrix(1.402,0,0,1.402,0,0)"/>
<path style="fill:none;stroke-width:1;stroke-linecap:round;stroke-linejoin:round;stroke:rgb(100%,100%,100%);stroke-opacity:1;stroke-miterlimit:4;" d="M 144.779222 123.999755 C 145.411689 125.064083 145.729315 126.284437 145.698667 127.518723 " transform="matrix(1.402,0,0,1.402,0,0)"/>
<path style="fill:none;stroke-width:1;stroke-linecap:round;stroke-linejoin:round;stroke:rgb(100%,100%,100%);stroke-opacity:1;stroke-miterlimit:4;" d="M 124.15021 125 L 136.150366 120.999019 C 138.329173 120.252318 140.728089 120.519793 142.689573 121.729003 " transform="matrix(1.402,0,0,1.402,0,0)"/>
<path style="fill-rule:nonzero;fill:rgb(100%,100%,100%);fill-opacity:1;stroke-width:1;stroke-linecap:round;stroke-linejoin:round;stroke:rgb(14.901961%,19.607843%,21.960784%);stroke-opacity:1;stroke-miterlimit:4;" d="M 345.920358 63.609105 C 345.918953 80.239531 332.438602 93.718633 315.809655 93.720881 C 299.181795 93.720562 285.700126 80.239124 285.700445 63.611263 C 285.699284 46.979751 299.179636 33.500649 315.811148 33.499488 C 332.439009 33.499806 345.920677 46.981244 345.920358 63.609105 Z M 345.920358 63.609105 " transform="matrix(1.291121,-0.546453,0.546453,1.291121,0.25236,179.65228)"/>
<path style=" stroke:none;fill-rule:nonzero;fill:rgb(11.372549%,9.411765%,48.627451%);fill-opacity:1;" d="M 457.320312 106.875 L 420.5 94.550781 C 414.128906 92.40625 410.695312 85.503906 412.832031 79.128906 C 414.976562 72.753906 421.878906 69.320312 428.253906 71.460938 L 465.070312 83.769531 C 471.441406 85.917969 474.871094 92.816406 472.742188 99.191406 C 470.597656 105.566406 463.699219 109.003906 457.320312 106.875 Z M 457.320312 106.875 "/>
<path style="fill:none;stroke-width:1;stroke-linecap:round;stroke-linejoin:round;stroke:rgb(14.901961%,19.607843%,21.960784%);stroke-opacity:1;stroke-miterlimit:4;" d="M 306.949893 66.740594 L 311.3493 56.231054 " transform="matrix(1.402,0,0,1.402,0,0)"/>
<path style="fill:none;stroke-width:1;stroke-linecap:round;stroke-linejoin:round;stroke:rgb(14.901961%,19.607843%,21.960784%);stroke-opacity:1;stroke-miterlimit:4;" d="M 321.418621 71.549572 L 325.801311 61.07068 " transform="matrix(1.402,0,0,1.402,0,0)"/>
<path style=" stroke:none;fill-rule:nonzero;fill:rgb(14.901961%,19.607843%,21.960784%);fill-opacity:1;" d="M 436.679688 93.191406 C 436.679688 93.878906 436.121094 94.4375 435.433594 94.4375 C 434.742188 94.4375 434.183594 93.878906 434.183594 93.191406 C 434.183594 92.5 434.742188 91.941406 435.433594 91.941406 C 436.121094 91.941406 436.679688 92.5 436.679688 93.191406 Z M 436.679688 93.191406 "/>
<path style=" stroke:none;fill-rule:nonzero;fill:rgb(14.901961%,19.607843%,21.960784%);fill-opacity:1;" d="M 447.699219 96.863281 C 447.699219 97.554688 447.140625 98.113281 446.453125 98.113281 C 445.765625 98.113281 445.207031 97.554688 445.207031 96.863281 C 445.207031 96.175781 445.765625 95.617188 446.453125 95.617188 C 447.140625 95.617188 447.699219 96.175781 447.699219 96.863281 Z M 447.699219 96.863281 "/>
<path style=" stroke:none;fill-rule:nonzero;fill:rgb(14.901961%,19.607843%,21.960784%);fill-opacity:1;" d="M 441.519531 82.085938 C 441.519531 82.777344 440.960938 83.335938 440.269531 83.335938 C 439.582031 83.335938 439.023438 82.777344 439.023438 82.085938 C 439.023438 81.398438 439.582031 80.839844 440.269531 80.839844 C 440.960938 80.839844 441.519531 81.398438 441.519531 82.085938 Z M 441.519531 82.085938 "/>
<path style=" stroke:none;fill-rule:nonzero;fill:rgb(14.901961%,19.607843%,21.960784%);fill-opacity:1;" d="M 452.355469 85.648438 C 452.355469 86.335938 451.796875 86.894531 451.109375 86.894531 C 450.417969 86.894531 449.859375 86.335938 449.859375 85.648438 C 449.859375 84.960938 450.417969 84.402344 451.109375 84.402344 C 451.796875 84.402344 452.355469 84.960938 452.355469 85.648438 Z M 452.355469 85.648438 "/>
<path style="fill:none;stroke-width:1;stroke-linecap:round;stroke-linejoin:round;stroke:rgb(14.901961%,19.607843%,21.960784%);stroke-opacity:1;stroke-miterlimit:4;" d="M 326.191378 76.230385 L 299.928673 67.43993 C 295.384384 65.910307 292.935316 60.987094 294.459366 56.440019 C 295.988989 51.892943 300.912201 49.443875 305.459277 50.970711 L 331.719196 59.750022 C 336.263485 61.282431 338.709767 66.202858 337.191289 70.749933 C 335.661666 75.297009 330.74124 77.748863 326.191378 76.230385 Z M 326.191378 76.230385 " transform="matrix(1.402,0,0,1.402,0,0)"/>
<path style="fill-rule:nonzero;fill:rgb(100%,100%,100%);fill-opacity:1;stroke-width:1;stroke-linecap:round;stroke-linejoin:round;stroke:rgb(14.901961%,19.607843%,21.960784%);stroke-opacity:1;stroke-miterlimit:4;" d="M 232.249131 61.990126 C 232.249131 78.618157 218.769503 92.100571 202.138686 92.100571 C 185.510654 92.100571 172.031027 78.618157 172.031027 61.990126 C 172.031027 45.362094 185.510654 31.879681 202.138686 31.879681 C 218.769503 31.879681 232.249131 45.362094 232.249131 61.990126 Z M 232.249131 61.990126 " transform="matrix(1.402,0,0,1.402,0,0)"/>
<path style="fill-rule:nonzero;fill:rgb(100%,100%,100%);fill-opacity:1;stroke-width:1;stroke-linecap:round;stroke-linejoin:round;stroke:rgb(14.901961%,19.607843%,21.960784%);stroke-opacity:1;stroke-miterlimit:4;" d="M 219.390826 62.759116 L 219.390826 75.099189 C 219.390826 78.230876 217.390335 80.769102 214.941267 80.769102 L 189.338891 80.769102 C 186.878678 80.769102 184.889332 78.230876 184.889332 75.099189 L 184.889332 62.759116 C 184.889332 59.630216 186.889823 57.089203 189.338891 57.089203 L 193.548836 57.089203 L 193.548836 49.928673 L 210.550218 49.928673 L 210.550218 57.089203 L 214.910619 57.089203 C 217.390335 57.089203 219.390826 59.630216 219.390826 62.759116 Z M 219.390826 62.759116 " transform="matrix(1.402,0,0,1.402,0,0)"/>
<path style="fill-rule:nonzero;fill:rgb(11.372549%,9.411765%,48.627451%);fill-opacity:1;stroke-width:1;stroke-linecap:butt;stroke-linejoin:miter;stroke:rgb(14.901961%,19.607843%,21.960784%);stroke-opacity:1;stroke-miterlimit:10;" d="M 184.889332 64.180078 L 219.379681 64.180078 L 219.379681 71.830978 L 184.889332 71.830978 Z M 184.889332 64.180078 " transform="matrix(1.402,0,0,1.402,0,0)"/>
<path style="fill-rule:nonzero;fill:rgb(11.372549%,9.411765%,48.627451%);fill-opacity:1;stroke-width:1;stroke-linecap:butt;stroke-linejoin:miter;stroke:rgb(14.901961%,19.607843%,21.960784%);stroke-opacity:1;stroke-miterlimit:10;" d="M 195.900388 41.550575 L 208.541369 41.550575 C 211.511457 41.550575 213.918732 43.95785 213.918732 46.930724 L 213.918732 52.519838 L 190.509094 52.519838 L 190.509094 46.930724 C 190.509094 45.501404 191.077479 44.130595 192.088869 43.121991 C 193.100259 42.113387 194.471068 41.547789 195.900388 41.550575 Z M 195.900388 41.550575 " transform="matrix(1.402,0,0,1.402,0,0)"/>
<path style="fill:none;stroke-width:1;stroke-linecap:round;stroke-linejoin:round;stroke:rgb(14.901961%,19.607843%,21.960784%);stroke-opacity:1;stroke-miterlimit:4;" d="M 194.599233 41.890491 L 194.599233 52.519838 " transform="matrix(1.402,0,0,1.402,0,0)"/>
<path style="fill:none;stroke-width:1;stroke-linecap:round;stroke-linejoin:round;stroke:rgb(14.901961%,19.607843%,21.960784%);stroke-opacity:1;stroke-miterlimit:4;" d="M 200.129837 41.550575 L 200.129837 52.519838 " transform="matrix(1.402,0,0,1.402,0,0)"/>
<path style="fill:none;stroke-width:1;stroke-linecap:round;stroke-linejoin:round;stroke:rgb(14.901961%,19.607843%,21.960784%);stroke-opacity:1;stroke-miterlimit:4;" d="M 205.66044 41.550575 L 205.66044 52.519838 " transform="matrix(1.402,0,0,1.402,0,0)"/>
<path style="fill:none;stroke-width:1;stroke-linecap:round;stroke-linejoin:round;stroke:rgb(14.901961%,19.607843%,21.960784%);stroke-opacity:1;stroke-miterlimit:4;" d="M 211.191044 42.169111 L 211.191044 52.519838 " transform="matrix(1.402,0,0,1.402,0,0)"/>
<path style="fill-rule:nonzero;fill:rgb(100%,100%,100%);fill-opacity:1;stroke-width:1;stroke-linecap:round;stroke-linejoin:round;stroke:rgb(14.901961%,19.607843%,21.960784%);stroke-opacity:1;stroke-miterlimit:4;" d="M 125.399861 221.719374 C 125.398707 238.349327 111.919106 251.830082 95.289153 251.828928 C 78.659651 251.830523 65.178445 238.348173 65.18005 221.720969 C 65.181205 205.091017 78.660805 191.610261 95.290308 191.608666 C 111.92026 191.609821 125.401016 205.089421 125.399861 221.719374 Z M 125.399861 221.719374 " transform="matrix(0.22681,-1.383532,1.383532,0.22681,-194.77986,392.40578)"/>
<path style="fill-rule:nonzero;fill:rgb(11.372549%,9.411765%,48.627451%);fill-opacity:1;stroke-width:1;stroke-linecap:round;stroke-linejoin:round;stroke:rgb(14.901961%,19.607843%,21.960784%);stroke-opacity:1;stroke-miterlimit:4;" d="M 108.440228 221.919656 C 108.441367 212.139771 102.222689 204.210262 94.551556 204.210454 C 86.880423 204.210647 80.659552 212.139326 80.658413 221.919211 C 80.660984 231.700424 86.879661 239.629933 94.550794 239.629741 C 102.221927 239.629548 108.44028 231.70206 108.440228 221.919656 Z M 108.440228 221.919656 " transform="matrix(0.599377,-1.267419,1.267419,0.599377,-205.37898,297.95304)"/>
<path style="fill-rule:nonzero;fill:rgb(11.372549%,9.411765%,48.627451%);fill-opacity:1;stroke-width:1;stroke-linecap:round;stroke-linejoin:round;stroke:rgb(14.901961%,19.607843%,21.960784%);stroke-opacity:1;stroke-miterlimit:4;" d="M 108.669584 219.551474 C 108.669532 209.76907 102.835974 201.839274 95.639682 201.839899 C 88.443389 201.840524 82.610157 209.767724 82.610209 219.550128 C 82.60907 229.330014 88.442627 237.25981 95.63892 237.259185 C 102.836404 237.261079 108.670964 229.330168 108.669584 219.551474 Z M 108.669584 219.551474 " transform="matrix(0.599377,-1.267419,1.267419,0.599377,-201.49544,297.44832)"/>
<path style="fill-rule:nonzero;fill:rgb(100%,100%,100%);fill-opacity:1;stroke-width:1;stroke-linecap:round;stroke-linejoin:round;stroke:rgb(14.901961%,19.607843%,21.960784%);stroke-opacity:1;stroke-miterlimit:4;" d="M 100.74893 210.65888 L 89.818674 226.030336 " transform="matrix(1.402,0,0,1.402,0,0)"/>
<path style="fill:none;stroke-width:1;stroke-linecap:round;stroke-linejoin:round;stroke:rgb(100%,100%,100%);stroke-opacity:1;stroke-miterlimit:4;" d="M 94.170716 208.170805 C 95.63347 208.368625 97.076721 208.702969 98.480965 209.17105 " transform="matrix(1.402,0,0,1.402,0,0)"/>
<path style="fill:none;stroke-width:1;stroke-linecap:round;stroke-linejoin:round;stroke:rgb(100%,100%,100%);stroke-opacity:1;stroke-miterlimit:4;" d="M 84.460815 222.639533 C 84.460815 222.639533 78.88006 216.5294 84.329864 210.639377 C 85.586439 209.357726 87.224724 208.516294 88.999532 208.24046 " transform="matrix(1.402,0,0,1.402,0,0)"/>
<path style="fill-rule:nonzero;fill:rgb(100%,100%,100%);fill-opacity:1;stroke-width:1;stroke-linecap:round;stroke-linejoin:round;stroke:rgb(14.901961%,19.607843%,21.960784%);stroke-opacity:1;stroke-miterlimit:4;" d="M 442.53054 221.719318 C 442.529386 238.349271 429.049785 251.830027 412.419832 251.828872 C 395.79033 251.830467 382.309124 238.348117 382.310729 221.720914 C 382.309134 205.091412 395.791484 191.610205 412.420986 191.60861 C 429.04819 191.610216 442.528945 205.089816 442.53054 221.719318 Z M 442.53054 221.719318 " transform="matrix(0.22681,-1.383532,1.383532,0.22681,177.95586,831.18972)"/>
<path style="fill-rule:nonzero;fill:rgb(11.372549%,9.411765%,48.627451%);fill-opacity:1;stroke-width:1;stroke-linecap:butt;stroke-linejoin:miter;stroke:rgb(14.901961%,19.607843%,21.960784%);stroke-opacity:1;stroke-miterlimit:10;" d="M 429.729293 224.75983 C 429.500825 225.091387 429.26957 225.431303 429.029957 225.760075 C 424.519102 232.009518 417.570324 237.841031 412.418643 238.988944 L 412.418643 238.910931 C 407.420203 237.790879 400.688748 232.240772 396.180679 226.180791 C 395.929922 225.849233 395.690308 225.509317 395.459054 225.180546 C 391.120943 218.958965 389.290411 212.430902 394.118893 209.731076 C 403.940242 204.250624 412.418643 216.000022 412.418643 216.000022 C 412.418643 216.000022 420.919334 204.339782 430.72118 209.80909 C 435.41871 212.430902 433.811073 218.688704 429.729293 224.75983 Z M 429.729293 224.75983 " transform="matrix(1.402,0,0,1.402,0,0)"/>
<path style=" stroke:none;fill-rule:nonzero;fill:rgb(100%,100%,100%);fill-opacity:1;" d="M 602.480469 315.113281 C 602.160156 315.578125 601.835938 316.054688 601.5 316.515625 L 598.023438 316.515625 L 594.042969 321.773438 L 591.335938 306.183594 L 587.128906 316.78125 L 577.1875 316.78125 L 572.101562 325.265625 L 568.175781 308.089844 L 563.113281 317.046875 L 555.445312 317.046875 C 555.09375 316.585938 554.757812 316.109375 554.433594 315.644531 L 562.300781 315.644531 L 568.734375 304.246094 L 572.6875 321.5625 L 576.433594 315.324219 L 586.246094 315.324219 L 591.855469 300.96875 L 594.855469 318.296875 L 597.308594 315.058594 Z M 602.480469 315.113281 "/>
<path style="fill-rule:nonzero;fill:rgb(100%,100%,100%);fill-opacity:1;stroke-width:1;stroke-linecap:round;stroke-linejoin:round;stroke:rgb(14.901961%,19.607843%,21.960784%);stroke-opacity:1;stroke-miterlimit:4;" d="M 413.569343 132.539453 C 413.569343 149.17027 400.089716 162.649897 383.458898 162.649897 C 366.830867 162.649897 353.351239 149.17027 353.351239 132.539453 C 353.351239 115.911421 366.830867 102.429008 383.458898 102.429008 C 400.089716 102.429008 413.569343 115.911421 413.569343 132.539453 Z M 413.569343 132.539453 " transform="matrix(1.402,0,0,1.402,0,0)"/>
<path style="fill-rule:nonzero;fill:rgb(100%,100%,100%);fill-opacity:1;stroke-width:1;stroke-linecap:round;stroke-linejoin:round;stroke:rgb(14.901961%,19.607843%,21.960784%);stroke-opacity:1;stroke-miterlimit:4;" d="M 381.199291 118.619606 C 381.489056 119.26879 379.680813 120.709255 377.201097 121.840451 C 374.72138 122.968861 372.400477 123.358929 372.110712 122.701386 C 371.820948 122.041057 373.620832 120.608951 376.108907 119.480541 C 378.599768 118.349345 380.901168 118.00107 381.199291 118.619606 Z M 381.199291 118.619606 " transform="matrix(1.402,0,0,1.402,0,0)"/>
<path style="fill-rule:nonzero;fill:rgb(100%,100%,100%);fill-opacity:1;stroke-width:1;stroke-linecap:round;stroke-linejoin:round;stroke:rgb(14.901961%,19.607843%,21.960784%);stroke-opacity:1;stroke-miterlimit:4;" d="M 394.75136 146.551244 L 385.740794 150.908858 L 377.660819 134.269682 L 372.080064 122.771041 L 381.090629 118.399496 L 386.529289 129.619517 Z M 394.75136 146.551244 " transform="matrix(1.402,0,0,1.402,0,0)"/>
<path style="fill-rule:nonzero;fill:rgb(11.372549%,9.411765%,48.627451%);fill-opacity:1;stroke-width:1;stroke-linecap:round;stroke-linejoin:round;stroke:rgb(14.901961%,19.607843%,21.960784%);stroke-opacity:1;stroke-miterlimit:4;" d="M 373.748997 126.200851 C 373.748997 126.200851 377.660819 124.389823 377.660819 124.389823 " transform="matrix(1.402,0,0,1.402,0,0)"/>
<path style="fill-rule:nonzero;fill:rgb(11.372549%,9.411765%,48.627451%);fill-opacity:1;stroke-width:1;stroke-linecap:round;stroke-linejoin:round;stroke:rgb(14.901961%,19.607843%,21.960784%);stroke-opacity:1;stroke-miterlimit:4;" d="M 375.451364 129.820123 C 375.451364 129.820123 379.3604 128.009094 379.3604 128.009094 " transform="matrix(1.402,0,0,1.402,0,0)"/>
<path style="fill-rule:nonzero;fill:rgb(100%,100%,100%);fill-opacity:1;stroke-width:1;stroke-linecap:round;stroke-linejoin:round;stroke:rgb(14.901961%,19.607843%,21.960784%);stroke-opacity:1;stroke-miterlimit:4;" d="M 389.190108 149.239925 L 393.840273 155.338913 L 391.51937 148.108729 Z M 389.190108 149.239925 " transform="matrix(1.402,0,0,1.402,0,0)"/>
<path style="fill-rule:nonzero;fill:rgb(11.372549%,9.411765%,48.627451%);fill-opacity:1;stroke-width:1;stroke-linecap:butt;stroke-linejoin:miter;stroke:rgb(14.901961%,19.607843%,21.960784%);stroke-opacity:1;stroke-miterlimit:10;" d="M 394.75136 146.551244 C 392.639421 148.663182 389.947954 150.095288 387.019659 150.669245 L 385.740794 150.908858 L 377.660819 134.269682 L 386.529289 129.619517 Z M 394.75136 146.551244 " transform="matrix(1.402,0,0,1.402,0,0)"/>
<path style="fill-rule:nonzero;fill:rgb(11.372549%,9.411765%,48.627451%);fill-opacity:1;stroke-width:1;stroke-linecap:round;stroke-linejoin:round;stroke:rgb(14.901961%,19.607843%,21.960784%);stroke-opacity:1;stroke-miterlimit:4;" d="M 379.3604 137.429231 L 383.040968 135.72965 " transform="matrix(1.402,0,0,1.402,0,0)"/>
<path style="fill-rule:nonzero;fill:rgb(11.372549%,9.411765%,48.627451%);fill-opacity:1;stroke-width:1;stroke-linecap:round;stroke-linejoin:round;stroke:rgb(14.901961%,19.607843%,21.960784%);stroke-opacity:1;stroke-miterlimit:4;" d="M 381.380394 141.29926 C 381.380394 141.29926 384.991307 139.649831 384.991307 139.649831 " transform="matrix(1.402,0,0,1.402,0,0)"/>
<path style="fill-rule:nonzero;fill:rgb(100%,100%,100%);fill-opacity:1;stroke-width:1;stroke-linecap:round;stroke-linejoin:round;stroke:rgb(14.901961%,19.607843%,21.960784%);stroke-opacity:1;stroke-miterlimit:4;" d="M 375.200606 121.249777 L 372.350325 114.838735 L 374.590429 113.571015 L 377.660819 120.06007 Z M 375.200606 121.249777 " transform="matrix(1.402,0,0,1.402,0,0)"/>
<path style="fill-rule:nonzero;fill:rgb(100%,100%,100%);fill-opacity:1;stroke-width:1;stroke-linecap:round;stroke-linejoin:round;stroke:rgb(14.901961%,19.607843%,21.960784%);stroke-opacity:1;stroke-miterlimit:4;" d="M 380.090384 112.790879 L 379.410552 111.289118 L 367.410396 116.660909 L 368.090228 118.159883 C 368.368848 118.800709 371.280425 118.101373 374.598787 116.619116 C 377.919936 115.139644 380.369004 113.42056 380.090384 112.790879 Z M 380.090384 112.790879 " transform="matrix(1.402,0,0,1.402,0,0)"/>
<path style="fill-rule:nonzero;fill:rgb(100%,100%,100%);fill-opacity:1;stroke-width:1;stroke-linecap:round;stroke-linejoin:round;stroke:rgb(14.901961%,19.607843%,21.960784%);stroke-opacity:1;stroke-miterlimit:4;" d="M 379.410552 111.289118 C 379.129146 110.659437 376.20921 111.350415 372.899206 112.829886 C 369.589203 114.309357 367.12899 116.031228 367.410396 116.660909 C 367.689016 117.290589 370.608951 116.599612 373.918955 115.108996 C 377.228959 113.621166 379.689172 111.918799 379.410552 111.289118 Z M 379.410552 111.289118 " transform="matrix(1.402,0,0,1.402,0,0)"/>
</g>
</svg>
